<?xml version="1.0" encoding="utf-8"?>
<!-- Generator: Adobe Illustrator 24.3.0, SVG Export Plug-In . SVG Version: 6.00 Build 0)  -->
<svg version="1.1" id="Layer_1" xmlns="http://www.w3.org/2000/svg" xmlns:xlink="http://www.w3.org/1999/xlink" x="0px" y="0px"
	 viewBox="0 0 180 180" enable-background="new 0 0 180 180" xml:space="preserve">
<g>
	
		<ellipse id="XMLID_1070_" transform="matrix(0.0128 -0.9999 0.9999 0.0128 -1.1481 178.8371)" fill="#333333" cx="90" cy="90" rx="63.612" ry="63.613"/>
	<g id="XMLID_797_">
		<path id="XMLID_1062_" fill="#424242" d="M136.388,75.725l2.971-0.696l-1.47-6.269l-2.971,0.696
			c-1.01-2.305-2.48-4.312-4.271-5.943l1.606-2.595l-5.472-3.395l-1.607,2.595c-1.775-0.693-3.678-1.101-5.633-1.187
			c-0.505-0.022-1.019-0.022-1.53,0c-0.019,0-0.043,0.005-0.062,0.005l-0.692-2.974l-6.27,1.469l0.696,2.974
			c-0.604,0.265-1.189,0.562-1.752,0.889c-1.584,0.914-2.992,2.059-4.194,3.383l-2.595-1.607l-3.391,5.469l2.592,1.608
			c-0.881,2.257-1.301,4.711-1.184,7.225l-2.97,0.696l1.47,6.27l2.97-0.697c1.011,2.303,2.477,4.316,4.271,5.947l-1.606,2.59
			l5.468,3.395l1.612-2.594c2.258,0.884,4.711,1.305,7.225,1.182l0.697,2.975l6.265-1.469l-0.696-2.971
			c0.608-0.268,1.193-0.563,1.757-0.888c1.58-0.915,2.989-2.063,4.19-3.384l2.595,1.607l3.392-5.473l-2.591-1.607
			C136.085,80.692,136.508,78.239,136.388,75.725z M125.306,87.815c-1.083,0.627-2.277,1.108-3.56,1.408
			c-6.999,1.641-14.007-2.702-15.648-9.703c-1.339-5.721,1.312-11.439,6.146-14.239c1.083-0.628,2.276-1.11,3.558-1.409
			c0.738-0.172,1.474-0.279,2.209-0.322c0.512-0.033,1.025-0.033,1.53-0.002c5.603,0.33,10.562,4.281,11.909,10.03
			C132.791,79.295,130.139,85.013,125.306,87.815z"/>
		<path id="XMLID_1058_" fill="#424242" d="M71.56,73.356l2.403-0.565l-1.188-5.073l-2.404,0.563
			c-0.817-1.863-2.007-3.491-3.457-4.811l1.302-2.101l-4.43-2.747l-1.301,2.101c-1.438-0.562-2.978-0.892-4.561-0.96
			c-0.408-0.019-0.824-0.019-1.238,0c-0.016,0-0.034,0.003-0.051,0.003l-0.561-2.407l-5.073,1.189l0.564,2.406
			c-0.49,0.215-0.964,0.455-1.419,0.719c-1.282,0.74-2.423,1.668-3.396,2.738l-2.1-1.301l-2.745,4.427l2.097,1.301
			c-0.713,1.827-1.053,3.813-0.956,5.849l-2.404,0.563l1.189,5.074l2.402-0.564c0.818,1.865,2.005,3.495,3.458,4.813l-1.301,2.098
			l4.426,2.747l1.305-2.1c1.827,0.716,3.814,1.056,5.849,0.957l0.565,2.407l5.069-1.189l-0.562-2.403
			c0.492-0.217,0.967-0.456,1.421-0.72c1.279-0.74,2.419-1.67,3.393-2.738l2.101,1.302l2.743-4.43l-2.097-1.302
			C71.315,77.377,71.656,75.392,71.56,73.356z M62.588,83.142c-0.875,0.508-1.841,0.898-2.88,1.141
			c-5.665,1.328-11.337-2.188-12.666-7.854c-1.083-4.63,1.062-9.259,4.975-11.525c0.878-0.508,1.843-0.899,2.881-1.141
			c0.599-0.14,1.193-0.225,1.788-0.26c0.414-0.027,0.83-0.027,1.238-0.004c4.535,0.268,8.55,3.467,9.64,8.119
			C68.648,76.246,66.501,80.874,62.588,83.142z"/>
		<g id="XMLID_1051_">
			
				<rect id="XMLID_1057_" x="73.692" y="115.19" fill-rule="evenodd" clip-rule="evenodd" fill="#CCCBC9" width="28.421" height="12.991"/>
			
				<rect id="XMLID_1056_" x="73.692" y="115.19" fill-rule="evenodd" clip-rule="evenodd" fill="#A3A3A3" width="28.421" height="6.495"/>
			<path id="XMLID_1055_" fill-rule="evenodd" clip-rule="evenodd" fill="#FFFFFF" d="M51.886,71.87h72.1
				c2.029,0,3.69,1.66,3.69,3.689v39.234c0,2.029-1.661,3.69-3.69,3.69h-72.1c-2.028,0-3.688-1.661-3.688-3.69V75.56
				C48.197,73.53,49.857,71.87,51.886,71.87z"/>
			
				<rect id="XMLID_1054_" x="50.646" y="74.022" fill-rule="evenodd" clip-rule="evenodd" fill="#CCCBC9" width="74.581" height="37.874"/>
			<path id="XMLID_1053_" fill-rule="evenodd" clip-rule="evenodd" fill="#FFFFFF" d="M57.782,125.494h60.241
				c0.738,0,1.344,0.604,1.344,1.344l0,0c0,0.739-0.606,1.344-1.344,1.344H57.782c-0.739,0-1.343-0.605-1.343-1.344l0,0
				C56.44,126.099,57.043,125.494,57.782,125.494z"/>
			<path id="XMLID_1052_" fill-rule="evenodd" clip-rule="evenodd" fill="#FFFFFF" d="M133.531,128.182
				c0-0.017,0.002-0.032,0.002-0.05c0-2.879-2.623-5.213-5.857-5.213c-3.236,0-5.858,2.334-5.858,5.213
				c0,0.018,0.001,0.033,0.001,0.05H133.531z"/>
		</g>
		<g id="XMLID_1047_">
			
				<rect id="XMLID_1050_" x="119.915" y="102.017" fill-rule="evenodd" clip-rule="evenodd" fill="#515151" width="14.231" height="7.021"/>
			<g id="XMLID_1048_">
				<path fill="#FFFFFF" d="M124.839,105.73l0.43,0.108c-0.091,0.354-0.253,0.623-0.486,0.808c-0.234,0.186-0.521,0.278-0.858,0.278
					c-0.35,0-0.635-0.071-0.854-0.214c-0.22-0.143-0.387-0.349-0.501-0.619c-0.114-0.271-0.172-0.561-0.172-0.87
					c0-0.338,0.064-0.633,0.194-0.885c0.129-0.252,0.312-0.443,0.552-0.574c0.238-0.131,0.5-0.195,0.787-0.195
					c0.324,0,0.598,0.082,0.819,0.248c0.222,0.165,0.376,0.397,0.463,0.697l-0.423,0.1c-0.075-0.236-0.185-0.408-0.328-0.516
					c-0.144-0.108-0.323-0.162-0.54-0.162c-0.25,0-0.458,0.06-0.626,0.18c-0.168,0.119-0.285,0.279-0.354,0.481
					c-0.067,0.202-0.102,0.409-0.102,0.624c0,0.275,0.04,0.517,0.121,0.723c0.08,0.206,0.205,0.359,0.375,0.461
					c0.17,0.103,0.354,0.153,0.552,0.153c0.24,0,0.444-0.069,0.611-0.208C124.667,106.21,124.779,106.004,124.839,105.73z"/>
				<path fill="#FFFFFF" d="M125.651,105.826l0.405-0.036c0.018,0.163,0.063,0.297,0.134,0.4c0.07,0.104,0.179,0.188,0.326,0.252
					c0.148,0.064,0.314,0.097,0.499,0.097c0.164,0,0.309-0.024,0.434-0.073c0.126-0.049,0.219-0.115,0.28-0.2
					c0.062-0.085,0.092-0.178,0.092-0.278c0-0.102-0.029-0.19-0.088-0.267c-0.06-0.076-0.157-0.14-0.293-0.191
					c-0.087-0.034-0.279-0.087-0.578-0.159c-0.298-0.07-0.507-0.139-0.627-0.202c-0.154-0.081-0.271-0.182-0.347-0.302
					c-0.075-0.121-0.113-0.256-0.113-0.404c0-0.164,0.046-0.317,0.14-0.46c0.093-0.143,0.229-0.251,0.407-0.324
					c0.179-0.074,0.377-0.11,0.596-0.11c0.24,0,0.453,0.038,0.637,0.115c0.184,0.078,0.325,0.191,0.424,0.343
					c0.1,0.15,0.152,0.321,0.16,0.512l-0.412,0.03c-0.023-0.205-0.098-0.359-0.225-0.465c-0.128-0.104-0.316-0.157-0.566-0.157
					c-0.26,0-0.449,0.048-0.568,0.144c-0.118,0.095-0.178,0.209-0.178,0.344c0,0.117,0.042,0.213,0.126,0.288
					c0.083,0.075,0.299,0.152,0.647,0.231c0.35,0.079,0.589,0.148,0.719,0.207c0.189,0.088,0.329,0.197,0.419,0.331
					c0.09,0.134,0.135,0.288,0.135,0.462c0,0.173-0.049,0.336-0.148,0.488c-0.099,0.152-0.24,0.271-0.426,0.357
					c-0.185,0.084-0.393,0.127-0.626,0.127c-0.294,0-0.54-0.043-0.738-0.129c-0.199-0.086-0.354-0.215-0.468-0.387
					C125.717,106.237,125.657,106.043,125.651,105.826z"/>
				<path fill="#FFFFFF" d="M128.677,105.826l0.405-0.036c0.019,0.163,0.063,0.297,0.134,0.4c0.07,0.104,0.179,0.188,0.326,0.252
					c0.148,0.064,0.315,0.097,0.499,0.097c0.164,0,0.309-0.024,0.434-0.073c0.126-0.049,0.219-0.115,0.28-0.2
					c0.062-0.085,0.092-0.178,0.092-0.278c0-0.102-0.029-0.19-0.088-0.267c-0.06-0.076-0.157-0.14-0.293-0.191
					c-0.087-0.034-0.279-0.087-0.578-0.159c-0.298-0.07-0.507-0.139-0.627-0.202c-0.154-0.081-0.271-0.182-0.347-0.302
					c-0.075-0.121-0.113-0.256-0.113-0.404c0-0.164,0.046-0.317,0.14-0.46c0.093-0.143,0.229-0.251,0.407-0.324
					c0.179-0.074,0.377-0.11,0.596-0.11c0.24,0,0.453,0.038,0.637,0.115c0.184,0.078,0.325,0.191,0.424,0.343
					c0.1,0.15,0.152,0.321,0.16,0.512l-0.412,0.03c-0.023-0.205-0.098-0.359-0.225-0.465c-0.128-0.104-0.316-0.157-0.566-0.157
					c-0.26,0-0.449,0.048-0.568,0.144c-0.118,0.095-0.178,0.209-0.178,0.344c0,0.117,0.042,0.213,0.126,0.288
					c0.083,0.075,0.299,0.152,0.647,0.231c0.35,0.079,0.589,0.148,0.719,0.207c0.189,0.088,0.329,0.197,0.419,0.331
					c0.09,0.134,0.135,0.288,0.135,0.462c0,0.173-0.049,0.336-0.148,0.488c-0.099,0.152-0.24,0.271-0.426,0.357
					c-0.186,0.084-0.393,0.127-0.626,0.127c-0.294,0-0.54-0.043-0.738-0.129c-0.199-0.086-0.354-0.215-0.468-0.387
					C128.742,106.237,128.683,106.043,128.677,105.826z"/>
			</g>
		</g>
		<g id="XMLID_1043_">
			
				<rect id="XMLID_1046_" x="65.081" y="126.838" fill-rule="evenodd" clip-rule="evenodd" fill="#FF916E" width="31.598" height="7.938"/>
			<g id="XMLID_1044_">
				<path fill="#FFFFFF" d="M66.061,131.257l0.426-0.059c0.012,0.273,0.062,0.46,0.153,0.56c0.091,0.101,0.217,0.15,0.378,0.15
					c0.118,0,0.221-0.027,0.307-0.081c0.086-0.054,0.146-0.128,0.178-0.222c0.032-0.094,0.049-0.242,0.049-0.447v-2.458h0.472v2.433
					c0,0.298-0.036,0.529-0.108,0.693c-0.072,0.164-0.186,0.289-0.343,0.375c-0.156,0.086-0.341,0.129-0.552,0.129
					c-0.312,0-0.553-0.09-0.719-0.271C66.134,131.88,66.054,131.612,66.061,131.257z"/>
				<path fill="#FFFFFF" d="M68.403,132.271l1.37-3.569h0.509l1.461,3.569h-0.538l-0.416-1.082h-1.493l-0.392,1.082H68.403z
					 M69.433,130.804h1.21l-0.372-0.988c-0.114-0.3-0.198-0.547-0.254-0.74c-0.045,0.23-0.109,0.457-0.192,0.683L69.433,130.804z"/>
				<path fill="#FFFFFF" d="M72.77,132.271l-1.383-3.569h0.512l0.928,2.593c0.074,0.207,0.137,0.402,0.188,0.584
					c0.055-0.195,0.119-0.389,0.192-0.584l0.964-2.593h0.481l-1.396,3.569H72.77z"/>
				<path fill="#FFFFFF" d="M74.314,132.271l1.37-3.569h0.509l1.461,3.569h-0.538l-0.416-1.082h-1.493l-0.392,1.082H74.314z
					 M75.344,130.804h1.21l-0.372-0.988c-0.114-0.3-0.198-0.547-0.254-0.74c-0.045,0.23-0.109,0.457-0.192,0.683L75.344,130.804z"/>
				<path fill="#FFFFFF" d="M77.87,131.124l0.446-0.039c0.021,0.178,0.069,0.324,0.146,0.439c0.077,0.113,0.197,0.207,0.359,0.277
					c0.162,0.07,0.345,0.106,0.548,0.106c0.18,0,0.339-0.027,0.478-0.08c0.138-0.054,0.24-0.127,0.308-0.221
					c0.067-0.094,0.101-0.195,0.101-0.305c0-0.113-0.032-0.211-0.097-0.294c-0.065-0.083-0.172-0.153-0.321-0.21
					c-0.096-0.038-0.308-0.096-0.636-0.175c-0.328-0.079-0.558-0.153-0.689-0.223c-0.17-0.089-0.297-0.2-0.381-0.333
					c-0.083-0.132-0.125-0.279-0.125-0.443c0-0.181,0.051-0.349,0.153-0.506c0.103-0.156,0.252-0.275,0.448-0.356
					c0.196-0.081,0.414-0.122,0.654-0.122c0.265,0,0.498,0.043,0.7,0.129c0.202,0.084,0.357,0.21,0.466,0.375
					c0.109,0.166,0.168,0.354,0.176,0.562l-0.453,0.035c-0.024-0.227-0.106-0.396-0.247-0.512c-0.141-0.115-0.348-0.173-0.622-0.173
					c-0.285,0-0.493,0.052-0.624,0.157c-0.131,0.104-0.196,0.23-0.196,0.379c0,0.127,0.047,0.232,0.139,0.316
					c0.091,0.082,0.328,0.167,0.712,0.254c0.384,0.087,0.647,0.162,0.79,0.228c0.208,0.096,0.361,0.217,0.461,0.364
					c0.099,0.146,0.148,0.316,0.148,0.508c0,0.189-0.055,0.368-0.163,0.536c-0.109,0.168-0.266,0.299-0.469,0.392
					c-0.204,0.094-0.434,0.141-0.688,0.141c-0.322,0-0.593-0.047-0.812-0.142c-0.219-0.094-0.39-0.235-0.514-0.425
					S77.877,131.362,77.87,131.124z"/>
				<path fill="#FFFFFF" d="M83.903,131.019l0.472,0.119c-0.099,0.389-0.277,0.684-0.534,0.888
					c-0.257,0.204-0.572,0.306-0.943,0.306c-0.385,0-0.697-0.078-0.938-0.234c-0.241-0.157-0.425-0.385-0.551-0.682
					c-0.125-0.297-0.188-0.615-0.188-0.957c0-0.371,0.071-0.695,0.213-0.972c0.143-0.276,0.345-0.487,0.606-0.631
					c0.263-0.144,0.551-0.216,0.865-0.216c0.357,0,0.657,0.092,0.901,0.273c0.243,0.182,0.413,0.438,0.509,0.767l-0.465,0.109
					c-0.083-0.259-0.203-0.448-0.36-0.567c-0.158-0.118-0.356-0.178-0.595-0.178c-0.273,0-0.503,0.066-0.688,0.197
					c-0.184,0.132-0.313,0.309-0.388,0.529c-0.075,0.223-0.112,0.451-0.112,0.686c0,0.304,0.044,0.568,0.133,0.795
					c0.088,0.227,0.226,0.396,0.412,0.508c0.187,0.111,0.389,0.168,0.606,0.168c0.265,0,0.488-0.076,0.672-0.228
					C83.714,131.546,83.838,131.319,83.903,131.019z"/>
				<path fill="#FFFFFF" d="M84.964,132.271v-3.569h1.583c0.318,0,0.56,0.032,0.726,0.097c0.165,0.063,0.298,0.177,0.396,0.339
					c0.099,0.163,0.148,0.342,0.148,0.538c0,0.254-0.082,0.467-0.246,0.641c-0.164,0.174-0.417,0.283-0.759,0.33
					c0.124,0.061,0.22,0.12,0.284,0.178c0.138,0.127,0.269,0.285,0.393,0.476l0.62,0.972h-0.594l-0.473-0.743
					c-0.138-0.214-0.251-0.378-0.341-0.491c-0.089-0.113-0.169-0.193-0.239-0.238c-0.071-0.046-0.143-0.078-0.216-0.096
					c-0.054-0.012-0.141-0.018-0.263-0.018h-0.548v1.586H84.964z M85.437,130.276h1.016c0.216,0,0.384-0.022,0.506-0.067
					c0.122-0.044,0.214-0.116,0.277-0.214c0.063-0.098,0.096-0.205,0.096-0.32c0-0.169-0.062-0.308-0.185-0.416
					c-0.122-0.109-0.315-0.164-0.58-0.164h-1.13V130.276z"/>
				<path fill="#FFFFFF" d="M88.639,132.271v-3.569h0.473v3.569H88.639z"/>
				<path fill="#FFFFFF" d="M89.943,132.271v-3.569h1.346c0.237,0,0.418,0.011,0.543,0.034c0.176,0.029,0.322,0.084,0.441,0.166
					c0.118,0.082,0.214,0.197,0.286,0.346c0.071,0.146,0.107,0.309,0.107,0.486c0,0.303-0.096,0.561-0.289,0.771
					c-0.193,0.21-0.542,0.315-1.047,0.315h-0.915v1.451H89.943z M90.416,130.397h0.922c0.306,0,0.522-0.057,0.65-0.17
					c0.128-0.113,0.192-0.273,0.192-0.48c0-0.149-0.038-0.277-0.113-0.384c-0.075-0.105-0.175-0.176-0.298-0.211
					c-0.08-0.021-0.227-0.031-0.441-0.031h-0.912V130.397z"/>
				<path fill="#FFFFFF" d="M94.177,132.271v-3.148h-1.176v-0.421h2.828v0.421h-1.181v3.148H94.177z"/>
			</g>
		</g>
		<g id="XMLID_905_">
			
				<rect id="XMLID_1042_" x="64.044" y="45.222" fill-rule="evenodd" clip-rule="evenodd" fill="#565656" width="47.784" height="66.738"/>
			<g id="XMLID_908_">
				
					<rect id="XMLID_1041_" x="67.534" y="49.07" fill-rule="evenodd" clip-rule="evenodd" fill="#FF916E" width="22.936" height="0.871"/>
				
					<rect id="XMLID_1038_" x="67.534" y="51.225" fill-rule="evenodd" clip-rule="evenodd" fill="#ADEBF6" width="7.35" height="0.871"/>
				
					<rect id="XMLID_1037_" x="67.534" y="53.372" fill-rule="evenodd" clip-rule="evenodd" fill="#CCCBC9" width="11.852" height="0.871"/>
				
					<rect id="XMLID_1034_" x="73.05" y="55.526" fill-rule="evenodd" clip-rule="evenodd" fill="#ADEBF6" width="6.915" height="0.871"/>
				
					<rect id="XMLID_1031_" x="73.05" y="57.676" fill-rule="evenodd" clip-rule="evenodd" fill="#ADEBF6" width="6.915" height="0.871"/>
				
					<rect id="XMLID_1028_" x="77.85" y="59.829" fill-rule="evenodd" clip-rule="evenodd" fill="#ADEBF6" width="6.728" height="0.871"/>
				
					<rect id="XMLID_1027_" x="77.357" y="51.225" fill-rule="evenodd" clip-rule="evenodd" fill="#CCCBC9" width="12.535" height="0.871"/>
				
					<rect id="XMLID_1026_" x="91.678" y="51.225" fill-rule="evenodd" clip-rule="evenodd" fill="#CCCBC9" width="5.987" height="0.871"/>
				
					<rect id="XMLID_1025_" x="99.938" y="51.225" fill-rule="evenodd" clip-rule="evenodd" fill="#CCCBC9" width="8.081" height="0.871"/>
				
					<rect id="XMLID_1022_" x="81.367" y="53.372" fill-rule="evenodd" clip-rule="evenodd" fill="#ADEBF6" width="7.053" height="0.871"/>
				
					<rect id="XMLID_1021_" x="82.077" y="55.526" fill-rule="evenodd" clip-rule="evenodd" fill="#CCCBC9" width="4.037" height="0.871"/>
				
					<rect id="XMLID_1020_" x="82.077" y="57.676" fill-rule="evenodd" clip-rule="evenodd" fill="#CCCBC9" width="6.916" height="0.871"/>
				
					<rect id="XMLID_1019_" x="88.035" y="55.526" fill-rule="evenodd" clip-rule="evenodd" fill="#CCCBC9" width="7.685" height="0.871"/>
				
					<rect id="XMLID_1018_" x="97.259" y="55.526" fill-rule="evenodd" clip-rule="evenodd" fill="#CCCBC9" width="4.031" height="0.871"/>
				
					<rect id="XMLID_1017_" x="103.021" y="55.526" fill-rule="evenodd" clip-rule="evenodd" fill="#CCCBC9" width="4.997" height="0.871"/>
				
					<rect id="XMLID_1016_" x="90.53" y="57.676" fill-rule="evenodd" clip-rule="evenodd" fill="#CCCBC9" width="8.736" height="0.871"/>
				
					<rect id="XMLID_1015_" x="100.571" y="57.676" fill-rule="evenodd" clip-rule="evenodd" fill="#CCCBC9" width="2.608" height="0.871"/>
				
					<rect id="XMLID_1014_" x="86.498" y="59.829" fill-rule="evenodd" clip-rule="evenodd" fill="#CCCBC9" width="5.002" height="0.871"/>
				
					<rect id="XMLID_1011_" x="73.05" y="64.132" fill-rule="evenodd" clip-rule="evenodd" fill="#ADEBF6" width="6.915" height="0.872"/>
				
					<rect id="XMLID_1008_" x="73.05" y="66.286" fill-rule="evenodd" clip-rule="evenodd" fill="#ADEBF6" width="6.915" height="0.872"/>
				
					<rect id="XMLID_1007_" x="82.077" y="64.132" fill-rule="evenodd" clip-rule="evenodd" fill="#CCCBC9" width="4.037" height="0.872"/>
				
					<rect id="XMLID_1006_" x="82.077" y="66.286" fill-rule="evenodd" clip-rule="evenodd" fill="#CCCBC9" width="6.23" height="0.872"/>
				
					<rect id="XMLID_1005_" x="88.035" y="64.132" fill-rule="evenodd" clip-rule="evenodd" fill="#CCCBC9" width="5.91" height="0.872"/>
				
					<rect id="XMLID_1004_" x="95.125" y="64.132" fill-rule="evenodd" clip-rule="evenodd" fill="#CCCBC9" width="3.106" height="0.872"/>
				
					<rect id="XMLID_1003_" x="99.563" y="64.132" fill-rule="evenodd" clip-rule="evenodd" fill="#CCCBC9" width="3.843" height="0.872"/>
				
					<rect id="XMLID_1002_" x="94.368" y="66.286" fill-rule="evenodd" clip-rule="evenodd" fill="#CCCBC9" width="6.922" height="0.872"/>
				
					<rect id="XMLID_999_" x="73.05" y="68.435" fill-rule="evenodd" clip-rule="evenodd" fill="#ADEBF6" width="6.915" height="0.871"/>
				
					<rect id="XMLID_996_" x="73.05" y="70.589" fill-rule="evenodd" clip-rule="evenodd" fill="#ADEBF6" width="6.915" height="0.871"/>
				
					<rect id="XMLID_995_" x="82.077" y="68.435" fill-rule="evenodd" clip-rule="evenodd" fill="#CCCBC9" width="4.037" height="0.871"/>
				
					<rect id="XMLID_994_" x="82.077" y="70.589" fill-rule="evenodd" clip-rule="evenodd" fill="#CCCBC9" width="12.681" height="0.871"/>
				
					<rect id="XMLID_993_" x="88.035" y="68.435" fill-rule="evenodd" clip-rule="evenodd" fill="#CCCBC9" width="7.685" height="0.871"/>
				
					<rect id="XMLID_992_" x="97.259" y="68.435" fill-rule="evenodd" clip-rule="evenodd" fill="#CCCBC9" width="4.031" height="0.871"/>
				
					<rect id="XMLID_991_" x="103.021" y="68.435" fill-rule="evenodd" clip-rule="evenodd" fill="#CCCBC9" width="4.997" height="0.871"/>
				
					<rect id="XMLID_990_" x="96.295" y="70.589" fill-rule="evenodd" clip-rule="evenodd" fill="#CCCBC9" width="7.111" height="0.871"/>
				
					<rect id="XMLID_989_" x="89.691" y="66.286" fill-rule="evenodd" clip-rule="evenodd" fill="#CCCBC9" width="2.944" height="0.872"/>
				
					<rect id="XMLID_986_" x="67.534" y="74.892" fill-rule="evenodd" clip-rule="evenodd" fill="#ADEBF6" width="7.35" height="0.872"/>
				
					<rect id="XMLID_985_" x="67.534" y="77.041" fill-rule="evenodd" clip-rule="evenodd" fill="#CCCBC9" width="11.852" height="0.872"/>
				
					<rect id="XMLID_982_" x="73.05" y="79.194" fill-rule="evenodd" clip-rule="evenodd" fill="#ADEBF6" width="6.915" height="0.871"/>
				
					<rect id="XMLID_979_" x="73.05" y="81.343" fill-rule="evenodd" clip-rule="evenodd" fill="#ADEBF6" width="6.915" height="0.877"/>
				
					<rect id="XMLID_976_" x="77.85" y="83.497" fill-rule="evenodd" clip-rule="evenodd" fill="#ADEBF6" width="6.728" height="0.871"/>
				
					<rect id="XMLID_975_" x="77.357" y="74.892" fill-rule="evenodd" clip-rule="evenodd" fill="#CCCBC9" width="6.954" height="0.872"/>
				
					<rect id="XMLID_974_" x="86.093" y="74.892" fill-rule="evenodd" clip-rule="evenodd" fill="#CCCBC9" width="3.513" height="0.872"/>
				
					<rect id="XMLID_973_" x="91.879" y="74.892" fill-rule="evenodd" clip-rule="evenodd" fill="#CCCBC9" width="11.17" height="0.872"/>
				
					<rect id="XMLID_970_" x="81.367" y="77.041" fill-rule="evenodd" clip-rule="evenodd" fill="#ADEBF6" width="7.053" height="0.872"/>
				
					<rect id="XMLID_969_" x="82.077" y="79.194" fill-rule="evenodd" clip-rule="evenodd" fill="#CCCBC9" width="7.88" height="0.871"/>
				
					<rect id="XMLID_968_" x="82.077" y="81.343" fill-rule="evenodd" clip-rule="evenodd" fill="#CCCBC9" width="5.379" height="0.877"/>
				
					<rect id="XMLID_967_" x="91.879" y="79.194" fill-rule="evenodd" clip-rule="evenodd" fill="#CCCBC9" width="5.855" height="0.871"/>
				
					<rect id="XMLID_966_" x="88.993" y="81.343" fill-rule="evenodd" clip-rule="evenodd" fill="#CCCBC9" width="10.273" height="0.877"/>
				
					<rect id="XMLID_965_" x="100.571" y="81.343" fill-rule="evenodd" clip-rule="evenodd" fill="#CCCBC9" width="2.608" height="0.877"/>
				
					<rect id="XMLID_964_" x="86.498" y="83.497" fill-rule="evenodd" clip-rule="evenodd" fill="#CCCBC9" width="5.002" height="0.871"/>
				
					<rect id="XMLID_963_" x="92.608" y="83.497" fill-rule="evenodd" clip-rule="evenodd" fill="#CCCBC9" width="9.31" height="0.871"/>
				
					<rect id="XMLID_962_" x="103.304" y="83.497" fill-rule="evenodd" clip-rule="evenodd" fill="#CCCBC9" width="2.781" height="0.871"/>
				
					<rect id="XMLID_959_" x="73.05" y="87.8" fill-rule="evenodd" clip-rule="evenodd" fill="#ADEBF6" width="6.915" height="0.873"/>
				
					<rect id="XMLID_956_" x="73.05" y="89.954" fill-rule="evenodd" clip-rule="evenodd" fill="#ADEBF6" width="6.915" height="0.871"/>
				
					<rect id="XMLID_955_" x="82.077" y="87.8" fill-rule="evenodd" clip-rule="evenodd" fill="#CCCBC9" width="11.387" height="0.873"/>
				
					<rect id="XMLID_954_" x="82.077" y="89.954" fill-rule="evenodd" clip-rule="evenodd" fill="#CCCBC9" width="6.23" height="0.871"/>
				
					<rect id="XMLID_953_" x="95.125" y="87.8" fill-rule="evenodd" clip-rule="evenodd" fill="#CCCBC9" width="3.106" height="0.873"/>
				
					<rect id="XMLID_952_" x="99.563" y="87.8" fill-rule="evenodd" clip-rule="evenodd" fill="#CCCBC9" width="3.843" height="0.873"/>
				
					<rect id="XMLID_951_" x="94.368" y="89.954" fill-rule="evenodd" clip-rule="evenodd" fill="#CCCBC9" width="6.922" height="0.871"/>
				
					<rect id="XMLID_950_" x="89.691" y="89.954" fill-rule="evenodd" clip-rule="evenodd" fill="#CCCBC9" width="2.944" height="0.871"/>
				
					<rect id="XMLID_947_" x="67.534" y="93.483" fill-rule="evenodd" clip-rule="evenodd" fill="#ADEBF6" width="7.35" height="0.871"/>
				
					<rect id="XMLID_946_" x="67.534" y="95.632" fill-rule="evenodd" clip-rule="evenodd" fill="#CCCBC9" width="11.852" height="0.871"/>
				
					<rect id="XMLID_943_" x="73.05" y="97.786" fill-rule="evenodd" clip-rule="evenodd" fill="#ADEBF6" width="6.915" height="0.871"/>
				
					<rect id="XMLID_940_" x="73.05" y="99.935" fill-rule="evenodd" clip-rule="evenodd" fill="#ADEBF6" width="6.915" height="0.871"/>
				
					<rect id="XMLID_937_" x="77.85" y="102.089" fill-rule="evenodd" clip-rule="evenodd" fill="#ADEBF6" width="6.728" height="0.871"/>
				
					<rect id="XMLID_936_" x="77.357" y="93.483" fill-rule="evenodd" clip-rule="evenodd" fill="#CCCBC9" width="6.954" height="0.871"/>
				
					<rect id="XMLID_935_" x="86.093" y="93.483" fill-rule="evenodd" clip-rule="evenodd" fill="#CCCBC9" width="3.513" height="0.871"/>
				
					<rect id="XMLID_934_" x="91.879" y="93.483" fill-rule="evenodd" clip-rule="evenodd" fill="#CCCBC9" width="16.14" height="0.871"/>
				
					<rect id="XMLID_931_" x="81.367" y="95.632" fill-rule="evenodd" clip-rule="evenodd" fill="#ADEBF6" width="7.053" height="0.871"/>
				
					<rect id="XMLID_930_" x="82.077" y="97.786" fill-rule="evenodd" clip-rule="evenodd" fill="#CCCBC9" width="7.88" height="0.871"/>
				
					<rect id="XMLID_929_" x="82.077" y="99.935" fill-rule="evenodd" clip-rule="evenodd" fill="#CCCBC9" width="5.379" height="0.871"/>
				
					<rect id="XMLID_928_" x="91.879" y="97.786" fill-rule="evenodd" clip-rule="evenodd" fill="#CCCBC9" width="5.855" height="0.871"/>
				
					<rect id="XMLID_927_" x="99.271" y="97.786" fill-rule="evenodd" clip-rule="evenodd" fill="#CCCBC9" width="3.562" height="0.871"/>
				
					<rect id="XMLID_926_" x="104.564" y="97.786" fill-rule="evenodd" clip-rule="evenodd" fill="#CCCBC9" width="3.454" height="0.871"/>
				
					<rect id="XMLID_925_" x="88.993" y="99.935" fill-rule="evenodd" clip-rule="evenodd" fill="#CCCBC9" width="10.273" height="0.871"/>
				
					<rect id="XMLID_924_" x="100.571" y="99.935" fill-rule="evenodd" clip-rule="evenodd" fill="#CCCBC9" width="2.608" height="0.871"/>
				
					<rect id="XMLID_923_" x="86.498" y="102.089" fill-rule="evenodd" clip-rule="evenodd" fill="#CCCBC9" width="5.002" height="0.871"/>
				
					<rect id="XMLID_920_" x="73.05" y="106.392" fill-rule="evenodd" clip-rule="evenodd" fill="#ADEBF6" width="6.915" height="0.871"/>
				
					<rect id="XMLID_917_" x="73.05" y="108.546" fill-rule="evenodd" clip-rule="evenodd" fill="#ADEBF6" width="6.915" height="0.871"/>
				
					<rect id="XMLID_916_" x="82.077" y="106.392" fill-rule="evenodd" clip-rule="evenodd" fill="#CCCBC9" width="11.387" height="0.871"/>
				
					<rect id="XMLID_915_" x="82.077" y="108.546" fill-rule="evenodd" clip-rule="evenodd" fill="#CCCBC9" width="6.23" height="0.871"/>
				
					<rect id="XMLID_914_" x="95.125" y="106.392" fill-rule="evenodd" clip-rule="evenodd" fill="#CCCBC9" width="3.106" height="0.871"/>
				
					<rect id="XMLID_913_" x="99.563" y="106.392" fill-rule="evenodd" clip-rule="evenodd" fill="#CCCBC9" width="3.843" height="0.871"/>
				
					<rect id="XMLID_912_" x="94.368" y="108.546" fill-rule="evenodd" clip-rule="evenodd" fill="#CCCBC9" width="6.922" height="0.871"/>
				
					<rect id="XMLID_909_" x="89.691" y="108.546" fill-rule="evenodd" clip-rule="evenodd" fill="#CCCBC9" width="2.944" height="0.871"/>
			</g>
		</g>
		<g id="XMLID_897_">
			<path fill="#FFFFFF" d="M55.91,68.045v-0.331l1.91-0.807v0.353l-1.515,0.622l1.515,0.627v0.353L55.91,68.045z"/>
			<path fill="#FFFFFF" d="M58.309,69.306v-2.884h0.354v1.034c0.165-0.191,0.373-0.287,0.625-0.287c0.155,0,0.289,0.031,0.403,0.092
				c0.114,0.061,0.196,0.146,0.245,0.253c0.05,0.108,0.074,0.264,0.074,0.468v1.324h-0.354v-1.324c0-0.176-0.038-0.305-0.115-0.387
				c-0.076-0.08-0.186-0.12-0.325-0.12c-0.105,0-0.204,0.026-0.296,0.081c-0.093,0.055-0.159,0.129-0.198,0.222
				c-0.039,0.093-0.059,0.222-0.059,0.386v1.143H58.309z"/>
			<path fill="#FFFFFF" d="M61.979,68.634l0.365,0.045c-0.058,0.214-0.164,0.379-0.32,0.498c-0.156,0.117-0.355,0.177-0.598,0.177
				c-0.306,0-0.549-0.095-0.728-0.282c-0.179-0.188-0.268-0.453-0.268-0.792c0-0.352,0.091-0.624,0.271-0.819
				c0.181-0.193,0.416-0.291,0.704-0.291c0.279,0,0.508,0.096,0.685,0.285c0.178,0.191,0.266,0.459,0.266,0.803
				c0,0.021,0,0.053-0.002,0.096h-1.558c0.013,0.229,0.078,0.404,0.194,0.527c0.117,0.121,0.263,0.182,0.438,0.182
				c0.13,0,0.24-0.033,0.332-0.102C61.853,68.892,61.926,68.782,61.979,68.634z M60.816,68.061h1.167
				c-0.016-0.176-0.061-0.308-0.134-0.396c-0.113-0.137-0.26-0.205-0.439-0.205c-0.162,0-0.299,0.055-0.41,0.164
				C60.89,67.733,60.828,67.878,60.816,68.061z"/>
			<path fill="#FFFFFF" d="M64.153,69.048c-0.131,0.112-0.257,0.191-0.379,0.236c-0.121,0.047-0.251,0.069-0.391,0.069
				c-0.229,0-0.405-0.056-0.529-0.169c-0.123-0.111-0.185-0.255-0.185-0.43c0-0.102,0.024-0.195,0.07-0.279
				c0.046-0.086,0.108-0.153,0.183-0.204c0.075-0.052,0.16-0.09,0.255-0.116c0.069-0.019,0.174-0.036,0.314-0.053
				c0.286-0.035,0.497-0.075,0.632-0.123c0.001-0.048,0.002-0.078,0.002-0.092c0-0.145-0.033-0.246-0.101-0.305
				c-0.09-0.08-0.225-0.121-0.403-0.121c-0.166,0-0.289,0.029-0.369,0.088c-0.079,0.059-0.138,0.162-0.176,0.311l-0.346-0.047
				c0.031-0.148,0.083-0.269,0.155-0.359c0.072-0.092,0.176-0.162,0.312-0.211c0.137-0.049,0.295-0.074,0.475-0.074
				c0.178,0,0.323,0.021,0.435,0.063c0.111,0.042,0.193,0.095,0.246,0.158c0.052,0.063,0.089,0.144,0.109,0.241
				c0.013,0.061,0.019,0.17,0.019,0.326v0.473c0,0.329,0.007,0.537,0.022,0.625c0.015,0.087,0.045,0.17,0.089,0.25h-0.369
				C64.188,69.233,64.164,69.147,64.153,69.048z M64.124,68.257c-0.129,0.053-0.321,0.098-0.578,0.135
				c-0.146,0.021-0.249,0.045-0.31,0.07c-0.06,0.026-0.106,0.064-0.14,0.115c-0.032,0.051-0.049,0.106-0.049,0.168
				c0,0.095,0.035,0.174,0.107,0.236c0.071,0.062,0.176,0.095,0.313,0.095c0.137,0,0.258-0.03,0.364-0.09
				c0.106-0.06,0.184-0.142,0.234-0.245c0.037-0.08,0.057-0.197,0.057-0.354V68.257z"/>
			<path fill="#FFFFFF" d="M66.387,69.306v-0.264c-0.133,0.208-0.327,0.312-0.584,0.312c-0.167,0-0.32-0.046-0.46-0.138
				c-0.14-0.092-0.248-0.221-0.324-0.385c-0.077-0.164-0.115-0.354-0.115-0.568c0-0.208,0.035-0.396,0.104-0.566
				c0.069-0.17,0.174-0.301,0.312-0.391c0.139-0.091,0.295-0.137,0.467-0.137c0.126,0,0.237,0.027,0.336,0.08
				c0.099,0.053,0.179,0.123,0.24,0.207v-1.034h0.352v2.884H66.387z M65.268,68.263c0,0.268,0.056,0.469,0.169,0.601
				c0.113,0.133,0.246,0.198,0.399,0.198c0.154,0,0.286-0.062,0.395-0.189c0.108-0.127,0.162-0.319,0.162-0.579
				c0-0.286-0.055-0.496-0.165-0.63c-0.11-0.134-0.246-0.201-0.407-0.201c-0.157,0-0.289,0.064-0.394,0.193
				C65.32,67.784,65.268,67.987,65.268,68.263z"/>
			<path fill="#FFFFFF" d="M69.137,68.045l-1.91,0.816v-0.353l1.513-0.627l-1.513-0.622v-0.353l1.91,0.807V68.045z"/>
		</g>
		<g id="XMLID_893_">
			<path id="XMLID_896_" fill-rule="evenodd" clip-rule="evenodd" fill="#CCCBC9" d="M122.511,57.3
				c1.499,0.307,2.619,1.447,2.619,2.797l0,0c0,1.389-1.162,2.822-2.745,2.822h-6.964c-1.695,0-3.003-1.358-3.003-2.822l0,0
				c0-1.35,1.121-2.49,2.62-2.797c-0.002-0.027-0.002-0.055-0.002-0.082c0-1.733,1.673-3.141,3.738-3.141
				c2.064,0,3.737,1.407,3.737,3.141C122.512,57.245,122.511,57.272,122.511,57.3z"/>
			<path id="XMLID_894_" fill-rule="evenodd" clip-rule="evenodd" fill="#FFFFFF" d="M116.934,56.157
				c1.049,0.215,1.832,1.011,1.832,1.954l0,0c0,0.97-0.813,1.973-1.919,1.973h-4.867c-1.185,0-2.097-0.95-2.097-1.973l0,0
				c0-0.943,0.783-1.739,1.83-1.954c-0.001-0.02-0.002-0.038-0.002-0.058c0-1.212,1.17-2.194,2.612-2.194
				c1.442,0,2.611,0.982,2.611,2.194C116.935,56.119,116.935,56.138,116.934,56.157z"/>
		</g>
		<g id="XMLID_870_">
			
				<rect id="XMLID_891_" x="57.604" y="55.218" fill-rule="evenodd" clip-rule="evenodd" fill="#FF916E" width="14.171" height="5.102"/>
			<g id="XMLID_871_">
				<path fill="#FFFFFF" d="M59.698,58.708v-2.292h0.303v0.941h1.191v-0.941h0.304v2.292h-0.304v-1.08h-1.191v1.08H59.698z"/>
				<path fill="#FFFFFF" d="M62.584,58.708v-2.021h-0.755v-0.271h1.817v0.271h-0.759v2.021H62.584z"/>
				<path fill="#FFFFFF" d="M63.947,58.708v-2.292h0.457l0.543,1.623c0.05,0.151,0.086,0.265,0.109,0.339
					c0.025-0.083,0.066-0.205,0.122-0.367l0.549-1.595h0.408v2.292h-0.293V56.79l-0.666,1.918h-0.274l-0.663-1.951v1.951H63.947z"/>
				<path fill="#FFFFFF" d="M66.612,58.708v-2.292h0.304v2.022h1.129v0.27H66.612z"/>
				<path fill="#FFFFFF" d="M68.292,58.108l0.296-0.025c0.021,0.145,0.072,0.252,0.152,0.324c0.08,0.072,0.176,0.109,0.288,0.109
					c0.136,0,0.251-0.051,0.345-0.154c0.094-0.102,0.141-0.237,0.141-0.406c0-0.16-0.045-0.287-0.136-0.38
					c-0.09-0.093-0.208-0.14-0.354-0.14c-0.09,0-0.172,0.021-0.245,0.062c-0.073,0.041-0.13,0.095-0.172,0.16l-0.265-0.034
					l0.223-1.178h1.14v0.269h-0.915l-0.123,0.617c0.138-0.097,0.282-0.145,0.433-0.145c0.2,0,0.369,0.069,0.507,0.208
					c0.138,0.139,0.207,0.317,0.207,0.534c0,0.208-0.061,0.387-0.182,0.539c-0.147,0.186-0.348,0.277-0.603,0.277
					c-0.208,0-0.378-0.058-0.511-0.175C68.386,58.456,68.311,58.301,68.292,58.108z"/>
			</g>
		</g>
	</g>
</g>
</svg>
